<?xml version="1.0" encoding="UTF-8"?>
<svg width="557.5" height="289.96" enable-background="new 0 0 1024 1024" version="1.1" viewBox="0 0 557.5 289.96" xmlns="http://www.w3.org/2000/svg">
 <path d="m293.64 258.05c4.0208 14.157 13.052 22.138 27.234 24.173 2.8804 0.41345 4.7255 1.4858 4.4365 4.7538-0.29364 3.3203-2.8563 2.7541-4.8879 2.7582-22.497 0.0465-44.995 0.0389-67.492 0.0163-2.1475-2e-3 -4.5346 0.22192-4.796-2.9689-0.20043-2.447 1.04-3.8744 3.2766-4.2576 18.003-3.085 23.96-16.212 26.512-31.982 3.4002-21.012 1.8207-42.216 1.9233-63.337 0.2193-45.161 0.0668-90.323 0.0819-135.48 2e-3 -7.3418-0.41108-14.671-2.1799-21.793-3.0118-12.126-10.622-19.77-23.084-22.033-2.7865-0.50617-4.8388-1.0439-4.6544-4.4541 0.19067-3.5272 2.7369-3.2357 5.0488-3.2394 16.498-0.027 32.997 0.0571 49.494-0.0791 3.3975-0.028 5.0319 1.3578 6.2772 4.3772 16.824 40.793 33.764 81.539 50.637 122.31 13.753 33.233 27.451 66.489 41.193 99.726 0.62378 1.5088 1.0917 3.188 2.9208 4.0037 2.4503-0.34643 2.7131-2.5855 3.3897-4.3362 14.348-37.125 28.659-74.265 42.977-111.4 13.777-35.736 27.654-71.434 41.22-107.25 2.061-5.4408 4.6397-7.7322 10.778-7.5454 15.983 0.48636 31.992 0.12649 47.99 0.2016 2.1207 0.01 4.9718-0.90064 5.4982 2.6529 0.52881 3.5699-2.1453 4.0324-4.5841 4.648-13.832 3.4916-19.063 10.275-20.46 24.489-0.94989 9.6647-0.77118 19.292-0.78167 28.935-0.0678 62.327-0.0104 124.65-0.092 186.98-6e-3 4.7024 0.63568 9.3009 1.2613 13.9 1.5284 11.238 8.234 17.795 19.132 20.322 1.2889 0.29895 2.5994 0.60474 3.8097 1.1195 1.9226 0.81775 1.8504 2.5607 1.662 4.2683-0.18774 1.7018-1.4267 2.0909-2.848 2.1711-1.1638 0.0657-2.3314 0.0883-3.4973 0.0887-24.331 0.01-48.661 0.0415-72.992-0.0291-2.2472-7e-3 -5.4132 1.1027-5.9008-2.7562-0.4757-3.7648 2.3846-4.1945 5.0565-4.7884 13.478-2.9961 19.77-11.488 19.79-27.075 0.0555-43.995 0.0406-87.991 0.0329-131.99-5e-3 -26.664-0.0476-53.327-0.0729-79.991-2e-3 -1.9778-2.4e-4 -3.9555-2.4e-4 -6.8394-2.3132 2.0312-2.7105 4.1525-3.4314 6.0096-31.092 80.102-62.157 160.21-93.226 240.33-0.4215 1.0868-0.83495 2.1768-1.2662 3.2597-0.82861 2.0809-1.7383 3.9067-4.5469 3.8174-2.7427-0.0872-3.6335-1.8815-4.4719-3.9742-5.2643-13.14-10.521-26.283-15.839-39.402-27.089-66.821-54.191-133.64-81.339-200.43-0.57739-1.4206-0.51873-3.3336-2.4704-4.1889 0 18.009-0.0174 35.893 3e-3 53.777 0.0546 46.827 0.14728 93.655 0.16852 140.48 3e-3 7.3822 1.2911 14.546 3.1107 22.058z" fill=currentColor/>
 <path d="m21.571 265.66c1.7438-7.6125 1.4205-14.948 1.4204-22.263-1e-3 -67.469-5e-3 -134.94-4e-3 -202.41 9e-5 -5.8476-0.6142-11.659-2.172-17.262-2.3698-8.5248-7.7403-14.297-16.744-15.857-2.8125-0.48743-4.1909-1.5389-4.0631-4.4812 0.13745-3.1638 2.3072-3.2097 4.5578-3.2074 30.486 0.0309 60.985-0.49097 91.453 0.27108 27.773 0.69468 54.562 6.5419 78.57 21.367 37.273 23.016 58.742 56.513 65.015 99.828 3.4716 23.968 3.2511 47.824-3.7462 71.134-12.375 41.224-38.806 69.848-78.824 85.808-19.077 7.6085-39.021 10.973-59.459 11.131-30.484 0.23675-60.971 0.11261-91.457 0.0734-2.0112-3e-3 -4.7533 0.96765-5.7233-1.7129-1.2499-3.454 0.58101-5.2412 4.0154-5.8805 9.1311-1.6998 14.722-7.214 17.159-16.54m35.964-42.682c2e-3 17.662 0.022 35.324-0.0112 52.986-5e-3 2.9139 0.16635 5.2042 4.1172 5.2506 18.323 0.21521 36.652 0.0633 54.711-3.2853 38.501-7.1385 64.247-29.875 78.366-65.948 8.7447-22.341 10.95-45.794 10.345-69.63-0.55352-21.804-3.9883-42.981-12.17-63.323-13.497-33.557-37.238-55.389-72.668-63.906-17.938-4.312-36.218-4.6823-54.549-4.3833-8.121 0.13245-8.1468 0.0123-8.1472 8.2926-3e-3 67.649 3e-3 135.3 6e-3 203.95z" fill="#f9f6ed"/>
</svg>
